<svg xmlns="http://www.w3.org/2000/svg" height="100" width="289">
  <defs/>
  <defs>
    <clipPath id="a" clipPathUnits="userSpaceOnUse">
      <path d="M0 100h289V0H0z"/>
    </clipPath>
  </defs>
  <g clip-path="url(#a)" transform="matrix(1 0 0 -1 0 100.00040017)">
    <path d="M239 11.1914c-8.885 0-17.075 3.008-23.624 8.05 6.646 8.489 10.624 19.165 10.624 30.759 0 11.593-3.978 22.269-10.624 30.759 6.549 5.041 14.739 8.05 23.624 8.05 21.399 0 38.809-17.41 38.809-38.809 0-21.4-17.41-38.809-38.809-38.809m-86.625 8.05c6.647 8.489 10.625 19.165 10.625 30.759 0 11.593-3.978 22.269-10.624 30.759 6.548 5.041 14.74 8.05 23.624 8.05 8.885 0 17.075-3.009 23.624-8.05-6.646-8.49-10.624-19.166-10.624-30.759 0-11.594 3.978-22.27 10.624-30.759-6.549-5.042-14.739-8.05-23.624-8.05-8.884 0-17.076 3.008-23.625 8.05m-63 0C96.022 27.7304 100 38.4064 100 50.0004c0 11.593-3.978 22.269-10.624 30.759 6.548 5.041 14.74 8.05 23.624 8.05 8.884 0 17.076-3.009 23.624-8.05-6.646-8.49-10.624-19.166-10.624-30.759 0-11.594 3.978-22.27 10.624-30.759-6.548-5.042-14.74-8.05-23.624-8.05-8.884 0-17.076 3.008-23.625 8.05m-78.184 30.759c0 21.399 17.41 38.809 38.809 38.809 8.884 0 17.076-3.009 23.624-8.05C66.978 72.2694 63 61.5934 63 50.0004c0-11.594 3.978-22.27 10.624-30.759-6.548-5.042-14.74-8.05-23.624-8.05-21.399 0-38.809 17.409-38.809 38.809M81.5 27.3734c-4.593 6.375-7.309 14.187-7.309 22.627 0 8.439 2.716 16.252 7.309 22.627 4.593-6.375 7.309-14.188 7.309-22.627 0-8.44-2.716-16.252-7.309-22.627m63 0c-4.593 6.375-7.309 14.187-7.309 22.627 0 8.439 2.716 16.252 7.309 22.627 4.593-6.375 7.309-14.188 7.309-22.627 0-8.44-2.716-16.252-7.309-22.627m63 0c-4.593 6.375-7.309 14.187-7.309 22.627 0 8.439 2.716 16.252 7.309 22.627 4.593-6.375 7.309-14.188 7.309-22.627 0-8.44-2.716-16.252-7.309-22.627m31.5 72.627c-11.932 0-22.896-4.207-31.5-11.207-8.604 7-19.568 11.207-31.5 11.207-11.932 0-22.896-4.207-31.5-11.207-8.604 7-19.569 11.207-31.5 11.207-11.932 0-22.896-4.207-31.5-11.207-8.604 7-19.569 11.207-31.5 11.207-27.57 0-50-22.43-50-50 0-27.571 22.43-50 50-50 11.931 0 22.896 4.206 31.5 11.207C90.104 4.2064 101.068.0004 113 .0004c11.931 0 22.896 4.206 31.5 11.207 8.604-7.001 19.568-11.207 31.5-11.207 11.932 0 22.896 4.206 31.5 11.207 8.604-7.001 19.568-11.207 31.5-11.207 27.57 0 50 22.429 50 50 0 27.57-22.43 50-50 50" fill="#fff"/>
  </g>
</svg>
